<?xml version="1.0" encoding="iso-8859-1"?>
<!-- Generator: Adobe Illustrator 19.0.0, SVG Export Plug-In . SVG Version: 6.00 Build 0)  -->
<svg version="1.1" id="Capa_1" xmlns="http://www.w3.org/2000/svg" xmlns:xlink="http://www.w3.org/1999/xlink" x="0px" y="0px"
	 viewBox="0 0 512.003 512.003" style="enable-background:new 0 0 512.003 512.003;" xml:space="preserve">
<path style="fill:#E53935;" d="M443.734,80.336L330.86,70.437c-49.812-4.334-99.906-4.334-149.717,0L68.268,80.336
	c-38.702,3.124-68.459,35.541-68.267,74.368v202.667c-0.204,38.835,29.557,71.265,68.267,74.389l112.939,9.813
	c24.832,2.133,49.835,3.243,74.859,3.243c25.024,0,50.027-1.067,74.859-3.243l112.939-9.813c38.659-3.187,68.348-35.6,68.139-74.389
	V154.704C512.194,115.877,482.436,83.459,443.734,80.336z"/>
<path style="fill:#FAFAFA;" d="M357.782,247.077l-149.333-96c-4.951-3.193-11.552-1.768-14.745,3.183
	c-1.111,1.722-1.702,3.728-1.703,5.777v192c0.002,5.891,4.78,10.665,10.671,10.663c2.049-0.001,4.055-0.592,5.777-1.703l149.333-96
	c4.954-3.187,6.387-9.787,3.2-14.742c-0.825-1.283-1.917-2.374-3.2-3.2V247.077z"/>
<path d="M256.001,444.816c-25.003,0-50.005-1.088-74.837-3.243l-112.896-9.835c-38.71-3.124-68.471-35.554-68.267-74.389V154.683
	c-0.182-38.819,29.573-71.224,68.267-74.347l112.896-9.899c49.797-4.334,99.877-4.334,149.675,0l112.96,9.813
	c38.717,3.158,68.454,35.629,68.203,74.475v202.667c0.204,38.835-29.557,71.265-68.267,74.389l0,0l-112.96,9.813
	C306.028,443.771,281.004,444.816,256.001,444.816z M256.001,88.549c-24.405,0-48.768,1.067-72.981,3.157L69.953,101.52
	c-27.614,2.317-48.794,25.495-48.619,53.205v202.667c-0.116,27.7,21.097,50.827,48.704,53.099l112.96,9.813
	c48.57,4.209,97.414,4.209,145.984,0l113.067-9.813c27.589-2.315,48.76-25.456,48.619-53.141V154.683
	c0.116-27.7-21.097-50.827-48.704-53.099l-112.96-9.813c-24.235-2.105-48.569-3.164-73.003-3.179V88.549z"/>
<path d="M202.668,362.704c-5.891,0-10.667-4.776-10.667-10.667v-192c-0.01-5.891,4.758-10.674,10.649-10.684
	c2.057-0.003,4.07,0.588,5.799,1.703l149.333,96c4.96,3.178,6.405,9.776,3.227,14.736c-0.83,1.296-1.931,2.397-3.227,3.227
	l-149.333,96C206.724,362.124,204.717,362.709,202.668,362.704z M213.334,179.579v152.917l118.933-76.459L213.334,179.579z"/>
<g>
</g>
<g>
</g>
<g>
</g>
<g>
</g>
<g>
</g>
<g>
</g>
<g>
</g>
<g>
</g>
<g>
</g>
<g>
</g>
<g>
</g>
<g>
</g>
<g>
</g>
<g>
</g>
<g>
</g>
</svg>
